<?xml version="1.0" encoding="UTF-8" standalone="no"?>
<!-- Generator: Adobe Illustrator 25.1.0, SVG Export Plug-In . SVG Version: 6.00 Build 0)  -->

<svg
   xmlns:dc="http://purl.org/dc/elements/1.1/"
   xmlns:cc="http://creativecommons.org/ns#"
   xmlns:rdf="http://www.w3.org/1999/02/22-rdf-syntax-ns#"
   xmlns:svg="http://www.w3.org/2000/svg"
   xmlns="http://www.w3.org/2000/svg"
   xmlns:sodipodi="http://sodipodi.sourceforge.net/DTD/sodipodi-0.dtd"
   xmlns:inkscape="http://www.inkscape.org/namespaces/inkscape"
   version="1.1"
   x="0px"
   y="0px"
   viewBox="0 0 24 24"
   style="enable-background:new 0 0 24 24;"
   xml:space="preserve"
   id="svg56"
   sodipodi:docname="menu.svg"
   inkscape:version="0.92.5 (2060ec1f9f, 2020-04-08)"><metadata
   id="metadata62"><rdf:RDF><cc:Work
       rdf:about=""><dc:format>image/svg+xml</dc:format><dc:type
         rdf:resource="http://purl.org/dc/dcmitype/StillImage" /></cc:Work></rdf:RDF></metadata><defs
   id="defs60" /><sodipodi:namedview
   pagecolor="#ffffff"
   bordercolor="#666666"
   borderopacity="1"
   objecttolerance="10"
   gridtolerance="10"
   guidetolerance="10"
   inkscape:pageopacity="0"
   inkscape:pageshadow="2"
   inkscape:window-width="2560"
   inkscape:window-height="1324"
   id="namedview58"
   showgrid="false"
   inkscape:zoom="19.666667"
   inkscape:cx="10.314506"
   inkscape:cy="14.279217"
   inkscape:window-x="1920"
   inkscape:window-y="27"
   inkscape:window-maximized="1"
   inkscape:current-layer="Layer_1_copy_2" />
<style
   type="text/css"
   id="style2">
	.st0{display:none;}
	.st1{display:inline;}
	.st2{fill:none;}
	.st3{fill:none;stroke:#5A5A5A;stroke-width:1.5;stroke-miterlimit:10;}
	.st4{fill:#FFFFFF;stroke:#5A5A5A;stroke-width:1.5;stroke-miterlimit:10;}
	.st5{fill:none;stroke:#5A5A5A;stroke-width:1.5;stroke-linejoin:round;stroke-miterlimit:10;}
</style>
<g
   id="Layer_1"
   class="st0">
	<g
   class="st1"
   id="g6">
		<path
   class="st2"
   d="M0,0h24v24H0V0z"
   id="path4" />
	</g>
	<g
   class="st1"
   id="g14">
		<g
   id="g12">
			<path
   d="M4,6H2v14c0,1.1,0.9,2,2,2h14v-2H4V6z"
   id="path8" />
			<path
   d="M20,2H8C6.9,2,6,2.9,6,4v12c0,1.1,0.9,2,2,2h12c1.1,0,2-0.9,2-2V4C22,2.9,21.1,2,20,2z M14,15c-0.6,0-1.1-0.5-1.1-1.1     c0-0.6,0.5-1,1.1-1c0.6,0,1,0.4,1,1C15,14.5,14.6,15,14,15z M16.5,8.8c-0.6,0.9-1.2,1.2-1.6,1.8c-0.1,0.2-0.2,0.4-0.2,1.2h-1.5     c0-0.4-0.1-1.1,0.3-1.6c0.4-0.7,1.2-1.2,1.6-1.8c0.5-0.7,0.2-1.9-1.1-1.9c-0.9,0-1.3,0.7-1.5,1.2l-1.4-0.6C11.5,6,12.5,5,14,5     c1.2,0,2.1,0.6,2.5,1.3C16.9,6.9,17.1,8,16.5,8.8z"
   id="path10" />
		</g>
	</g>
</g>
<g
   id="Layer_1_copy"
   class="st0">
	<g
   id="Group_50"
   transform="translate(0 0.75)"
   class="st1">
		<g
   id="g20">
			<g
   id="Group_19"
   transform="translate(0 19.799)">
				<line
   id="Line_12"
   class="st3"
   x1="2"
   y1="-1.2"
   x2="22"
   y2="-1.2" />
			</g>
			<circle
   id="Ellipse_9"
   class="st4"
   cx="7.1"
   cy="18.6"
   r="1.9" />
		</g>
		<g
   id="g25">
			<g
   id="Group_18"
   transform="translate(0 11.317)">
				<line
   id="Line_11"
   class="st3"
   x1="2"
   y1="-0.1"
   x2="22"
   y2="-0.1" />
			</g>
			<circle
   id="Ellipse_10"
   class="st4"
   cx="19.5"
   cy="11.2"
   r="1.9" />
		</g>
		<g
   id="g30">
			<g
   id="Group_17"
   transform="translate(0 2.836)">
				<line
   id="Line_10"
   class="st3"
   x1="2"
   y1="1.1"
   x2="22"
   y2="1.1" />
			</g>
			<circle
   id="Ellipse_11"
   class="st4"
   cx="11.3"
   cy="3.9"
   r="1.9" />
		</g>
	</g>
	<g
   class="st1"
   id="g35">
		<path
   class="st2"
   d="M0,0h24v24H0V0z"
   id="path33" />
	</g>
</g>
<g
   id="Layer_1_copy_2">
	<g
   id="Group_50_1_"
   transform="matrix(1.2033898,0,0,1,-2.440678,0.75)"
   style="stroke-width:0.91158432">
		<g
   id="g40"
   style="stroke-width:0.91158432">
			<g
   id="Group_19_1_"
   transform="translate(0,19.799)"
   style="stroke-width:0.91158432">
				<line
   id="Line_12_1_"
   class="st5"
   x1="2"
   y1="-1.2"
   x2="22"
   y2="-1.2"
   style="fill:none;stroke:#5a5a5a;stroke-width:1.36737645;stroke-linejoin:round;stroke-miterlimit:10" />
			</g>
		</g>
		<g
   id="g44"
   style="stroke-width:0.91158432">
			<g
   id="Group_18_1_"
   transform="translate(0,11.317)"
   style="stroke-width:0.91158432">
				<line
   id="Line_11_1_"
   class="st5"
   x1="2"
   y1="-0.1"
   x2="22"
   y2="-0.1"
   style="fill:none;stroke:#5a5a5a;stroke-width:1.36737645;stroke-linejoin:round;stroke-miterlimit:10" />
			</g>
		</g>
		<g
   id="g48"
   style="stroke-width:0.91158432">
			<g
   id="Group_17_1_"
   transform="translate(0,2.836)"
   style="stroke-width:0.91158432">
				<line
   id="Line_10_1_"
   class="st5"
   x1="2"
   y1="1.1"
   x2="22"
   y2="1.1"
   style="fill:none;stroke:#5a5a5a;stroke-width:1.36737645;stroke-linejoin:round;stroke-miterlimit:10" />
			</g>
		</g>
	</g>
	<g
   id="g53">
		<path
   class="st2"
   d="M0,0h24v24H0V0z"
   id="path51" />
	</g>
</g>
</svg>